<svg xmlns="http://www.w3.org/2000/svg" xmlns:xlink="http://www.w3.org/1999/xlink" viewBox="0 0 532.7 806.3"><defs><clipPath id="a" transform="translate(-25 -35.3)"><path d="M477.5,419.7c-6.9-46.7-22.7-37.9-4.4-105.5q-29.2-38.7-82.3-62.7c-51.9,20.3-69.4,22.9-89.6,4.8-16.6-1-29.9-4.6-40.1-10.7Q135.8,274.7,99.7,476.3c-.9,8.2-1.4,12.3-1.4,12.3q-39.9,85-41.2,162.2C60.5,733,99.8,739,116.3,767.1c31.4,62.1,133.3,86.3,209.2,28.7,21.7-14.7,35.6-13.5,68.2-42.5q40.9-40.6,58.8-221.6Q474.7,463.9,477.5,419.7Z" style="fill:none;clip-rule:evenodd"/></clipPath></defs><path d="M443.8,672.4c-.8,2.8-1.5,5.7-2.2,8.5-7.1,26.5-18.7,61.9-38.7,81.7l-.2.3-.3.2a196.7,196.7,0,0,1-29.8,22.4c-7.3,4.4-14.6,7.8-22.2,11.5a120.7,120.7,0,0,0-17.3,9.5c-37.5,28.3-84.7,40.7-131.1,32.8-39.8-6.8-78.4-29.1-97.2-65.9a46,46,0,0,0-3.2-4.5c-4.2-5.4-9.6-10.2-14.5-14.9a154.3,154.3,0,0,1-18.8-20.8C50.8,709.3,45.2,680.4,44,651.3v-.7a349.2,349.2,0,0,1,4.1-46.9l-.9-.6a52.1,52.1,0,0,1-7.3-6.8c-15.6-17.9-16.6-45.1-13.6-67.5a189.1,189.1,0,0,1,10.8-43.1c3.3-8.6,9.2-22.5,17.2-27.6h.3c6.7-4,19.1-5.9,30-4.9l.7-11.9c1.3-20.7,3.1-41.4,6-61.9a398.1,398.1,0,0,1,10-49.5c5.4-19.6,13.9-42.1,28.2-57.5-7.5-26.3-6.7-53.1,6.6-77.9l9.7-18.1,3.9,5.2c3.4-24.4,17-44.3,47.8-57.4l14.4-6.1c13.7-20,33.9-33.4,62.2-36.7l6.9-.8c13.7-15.5,31.4-28.3,52.5-38.4l14-6.7,4.2,14.9c3.5,12.1,8.4,24.2,13.3,35.7s9.5,21.6,14.6,32.2a119.5,119.5,0,0,0,11.9-23.7l6.2-16.5,14,10.6c17,12.8,27.8,30.4,34.4,49.8a25.2,25.2,0,0,1,1.5-2.4l10-14.4,11,13.6c16.1,20,20.5,47.3,19.6,74.5,14.4-16.1,31.2-28,46.4-20.9s15.6,26.1,14.3,40.1a195.4,195.4,0,0,1-5.9,30.3c-3,11.3-6.7,22.5-10.8,33.5,49.6,81.3,21,161.1-36,230a44.3,44.3,0,0,1,24.2,25.8v.5c6.1,18.4,7.1,38,1.3,56.6-10.5,33.3-39.5,54.3-71.6,64.8Z" transform="translate(-25 -35.3)" style="fill:#000002;fill-rule:evenodd"/><path d="M477.5,419.7c-6.9-46.7-22.7-37.9-4.4-105.5q-29.2-38.7-82.3-62.7c-51.9,20.3-69.4,22.9-89.6,4.8-16.6-1-29.9-4.6-40.1-10.7Q135.8,274.7,99.7,476.3c-.9,8.2-1.4,12.3-1.4,12.3q-39.9,85-41.2,162.2C60.5,733,99.8,739,116.3,767.1c31.4,62.1,133.3,86.3,209.2,28.7,21.7-14.7,35.6-13.5,68.2-42.5q40.9-40.6,58.8-221.6Q474.7,463.9,477.5,419.7Z" transform="translate(-25 -35.3)" style="fill:#f1a59b;fill-rule:evenodd"/><g style="clip-path:url(#a)"><path d="M246.5,816.6c-4.3-2.1-5-8.2-9.5-13.2s-12.9-8.6-18.9-11a68,68,0,0,0-13.3-4.1c-3.4-.6-6.3-.7-8.9.3a10.1,10.1,0,0,0-6,6.3c-1,3-.6,6.8,1.8,10.6s6.8,7.7,9,9.6,2.2,1.9,1.4,1.8-2.5-.4-5.9-1.3a126.2,126.2,0,0,1-13.8-4.1c-5.3-1.9-10.7-4.4-13.5-5.7s-3.1-1.5-4.1-3.7-2.9-6.2-5.2-11.9a161.3,161.3,0,0,1-7.3-22c-2.1-8.8-3.5-18.9-4.9-26.2s-2.9-12.1-6.3-17.6-8.8-11.7-15.2-25.2-13.8-34.2-18.2-49.8-6.1-26-5.7-39.4a224,224,0,0,1,5.4-40.7c2.6-10.9,5.4-16.3,10.2-21s11.6-8.7,18.1-11.6a70.5,70.5,0,0,1,18.2-5.8c5.5-1,10.5-1,14.7.3a24.5,24.5,0,0,1,9.5,5.7c1.7,1.9,1.8,2.9.9,4s-2.6,2.4-4.6,4.2a62.7,62.7,0,0,0-5.5,6.2,23.5,23.5,0,0,0-3,5,17.8,17.8,0,0,0-1.3,5.4,27.6,27.6,0,0,0-.1,7.1c.2,2.8.8,5.9,3.9,10.6a56.3,56.3,0,0,0,15.2,15.3,51.7,51.7,0,0,0,19,7.1c4.9.8,6.9.1,8.9-1a51,51,0,0,0,5-3.6c1.2-1,1.7-1.4,3.7-.4s5.5,3.6,9,5.5a79.5,79.5,0,0,0,9.4,4.6,28.8,28.8,0,0,0,7.4,2.3,25.3,25.3,0,0,0,10.2-1c3.8-1.2,7.8-3.6,10.5-4.8a20,20,0,0,1,6.5-1.9c2.6-.4,6.5-1.1,11.4-1.6s10.7-.7,15-1.9a21.5,21.5,0,0,0,9.9-6,34.7,34.7,0,0,0,6.6-9.7,23.9,23.9,0,0,0,1.7-12.9,73.6,73.6,0,0,0-4.3-17.7c-2-5.5-4.3-9.7-6.8-12.6a16.4,16.4,0,0,0-8-5.5,24.8,24.8,0,0,0-9.6-1.1c-2.9.4-4.9,1.5-7.1,4.5s-4.2,7.7-6.6,11.3-5,6-9.6,8.7a85,85,0,0,1-15.9,6.9c-4.9,1.5-8.1,1.6-11.5.8a26.7,26.7,0,0,1-9.3-4.4c-2.4-1.8-3.6-3.7-5.3-6.6a89.6,89.6,0,0,1-4.9-9.8c-1.2-3.1-1.6-5.6.6-11.4s7.1-15.2,13.2-25.8,13.7-22.3,18.2-30.2,5.9-11.8,7.6-14.7,4-4.8,3.1-10.3-4.9-14.4-8.5-24.6-6.7-21.4-8.2-27.3-1.6-6.1,1.1-16.2,8.1-29.8,16.3-48.5,19.4-36.2,25.5-45.7,7.4-11.2,8.1-11.8.9-.2,5.1,1.8,12.3,5.8,18,7,9-.1,17.9-4.2,23.2-11.1,31.1-14.5,9.3-3.5,22.8,3.4,38.9,20.9,54.5,30.5,21.1,15,24.9,18.8,5.9,6.1,4.8,9.4-5.7,8-9,13.7-5.6,12.7-6.6,23.7-.6,26.1-.4,35.2.2,11.9-.9,13.5-3.1,1.7-11-2.3-21.6-12.1-29.5-16.4-10-4.7-21.6-4.8-32.5-.2-44.9.8-16.1,2.7-20.9,8.3-10.9,14.8-15.1,23.3a79.8,79.8,0,0,0-8.3,25.4,150.4,150.4,0,0,0-1.3,29.7c.6,8.7,2.3,14.7,6.5,20.4s11,11.1,17.5,14.7,12.8,5.4,20.8,6.8a135.5,135.5,0,0,0,27.8,1.9c9.7-.4,19.4-2.3,26.6-3.2s12.1-1.1,15.8-.5,6.4,1.6,9.8,4.9a42.6,42.6,0,0,1,10.5,17.1c2.8,8.3,4.2,19.5,4.3,31.1s-1,23.6-1.5,34.1-.4,19.7-4.7,41-13,54.8-20.1,72.1-12.7,18.3-19.3,22-14.2,10.2-21.7,16.4-14.7,12.4-19.2,15.8-6.3,4.4-8.9,4.2-6.1-1.4-8.9-2a24.4,24.4,0,0,0-7.5-.4A15.9,15.9,0,0,0,326,778c-2.5,1.4-5.1,3.8-8.2,8s-6.8,10-9.7,13.8a21.2,21.2,0,0,1-7.3,6.6,64.4,64.4,0,0,1-9,3.6,87.8,87.8,0,0,1-12.8,3.7c-4.4.9-8.6,1.1-14.6,2.1S250.7,818.8,246.5,816.6Z" transform="translate(-25 -35.3)" style="fill:#f6bab2;fill-rule:evenodd"/></g><path d="M393.3,383.3l-.6-1.3,12.8,10a160.7,160.7,0,0,1,33.2,34.7l3.6,6c2.1,2.8.4,5.1-1.8,4l-7.1-4.5a344.6,344.6,0,0,0-30.2-17.1l-.7-.3-.6-.3a226.7,226.7,0,0,0-21.6-9.3l-.4-.2h-.2a165.1,165.1,0,0,0-30-8.4h0c-3.2-.8-6.1-2.2-7.2-4.6-2.1-9.3-1.5-19.1.3-28.4l.4-2.2c.5-1.1,2.4-1.2,4.7-.7a242.6,242.6,0,0,1,23.4,10.1h0l2.8,1.5,1.7.8h0l1.7.9h0l3.4,1.9,1.3.7h0C386,378.7,389.7,380.9,393.3,383.3Z" transform="translate(-25 -35.3)" style="fill:#000002;stroke:#000002;stroke-miterlimit:22.925600000000003;stroke-width:0.5669000000000001px;fill-rule:evenodd"/><path d="M264.3,743.7c-5.1-1.1-14.7-5.4-25.3-7.5a102.2,102.2,0,0,0-31.1-.5c-8.7,1.2-14.3,3.2-18.3,4.2s-6.2.8-8.8-.4a22.7,22.7,0,0,1-7.2-5.5,13,13,0,0,1-3-6.3,9.3,9.3,0,0,1,1.6-7.1c1.7-2.7,5.2-5.7,7.1-7.3s2.3-1.6-.3-3.3a56.2,56.2,0,0,1-13.4-11.1c-5.3-6.1-10.2-15.1-13.5-21.6s-5-10.6-6.2-12.7-2.2-2.1-3.9-2.1-4.2.2-5.7-.4-2.2-2-2.5-3.9a16.3,16.3,0,0,1,0-6.6,13.5,13.5,0,0,1,3.9-6.6,24.8,24.8,0,0,1,8.6-5.4,19.6,19.6,0,0,1,8.7-1.4c2.2.1,3.2.8,3.8,1.6a4.3,4.3,0,0,1,.6,3.4c-.1,1.7-.7,4.2-.8,5.6s.2,1.8,2.7,3,6.9,3.4,21.4,5.6,39,4.7,58,6.7,32.4,3.7,44.7,4.6,23.5,1.3,29.7,1.3,7.4-.1,7.8-1.1-.3-3,.4-5.7a15.3,15.3,0,0,1,4.7-7.9c2.3-1.8,4.8-1.8,7.8-.1a23.4,23.4,0,0,1,8.5,8.6,25.3,25.3,0,0,1,2.7,11.3c0,3.6-.5,6.6-2.6,8.6s-5.6,3-8.9,2.8a24.2,24.2,0,0,1-8.7-2.6c-2-.9-2.9-1.5-4.7-1.5s-4.6.6-8.3,3.1-8.3,7-13.8,12.3-11.9,11.4-18.2,15.2a55.9,55.9,0,0,1-15.3,6.2c-2.9.9-2.7,1.1-1.3,2.1a30.4,30.4,0,0,1,5.6,5.4,13.3,13.3,0,0,1,2,7.9c-.1,2.3-1,4-1.8,5.9S269.5,744.7,264.3,743.7Z" transform="translate(-25 -35.3)" style="fill:#f2a9a0;fill-rule:evenodd"/><path d="M265.2,743.5a32.3,32.3,0,0,0-6.5-4,97.5,97.5,0,0,0-9.8-3.4,142.7,142.7,0,0,0-14.2-3.8,87,87,0,0,0-18.2-1.3c-7.6.1-17.5.8-22.7,1.2s-5.6.7-6.6.7a12.7,12.7,0,0,1-3.4-.5c-.9-.4-1.2-.9-.6-1.5s2-1.3,4.3-2.1l7.3-2.6c1.7-.7,2.1-1.2,1.5-2.1s-2-2.4-3.4-4.2a50.5,50.5,0,0,1-3.6-5.8c-.9-1.9-1.4-3.7-1.8-4.6s-.5-1.1,11.3-1.8l48-2.6c12.4-.5,13.4-.3,13.9.4a3.7,3.7,0,0,1,.2,2.6,9.7,9.7,0,0,0-.1,2.9c.1.7.6,1.2.8,2.3a9,9,0,0,1-.1,4.3,15,15,0,0,1-1.9,4.9c-1,1.7-2.4,3.7-3.2,5.2a5.9,5.9,0,0,0-1,3.3c.1.9.5,1.5,1.8,2.3s3.4,1.9,5.2,4.1a33.2,33.2,0,0,1,4,6.8C267,745.5,266.6,744.7,265.2,743.5Z" transform="translate(-25 -35.3)" style="fill:#d89286;fill-rule:evenodd"/><path d="M319.8,490.3a14,14,0,0,1-6.3-4.8c-1.7-2.4-2.8-5.5-3-10.2a60.4,60.4,0,0,1,1.9-16.4,88,88,0,0,1,4.8-12.3c1.1-2.6,1.1-3.2,1.1-3.5a2.8,2.8,0,0,0-.1-.8,3.1,3.1,0,0,1,.3-2,11.1,11.1,0,0,1,2.4-1.6,8.3,8.3,0,0,1,2.2-1.5,31,31,0,0,1,7.3-1.3,73.2,73.2,0,0,1,15.2-.4c5.7.6,11.5,2.2,20.6,4.7s21.3,5.9,31.6,9.6,18.6,7.5,24.1,11.3a36.2,36.2,0,0,1,9.4,9.1c1.1,1.7.8,1.5-.4.7a15.8,15.8,0,0,0-4.4-2.4,1.7,1.7,0,0,0-2.1,1,3.2,3.2,0,0,0-.2,2.3c.1,1.2.4,3.2.7,5.8a45.3,45.3,0,0,1,.3,9.2,21.7,21.7,0,0,1-2.8,8.9,10.1,10.1,0,0,1-5.7,4.7c-2.3.8-5,.9-17,0s-33.2-2.8-44.6-3.6-12.8-.5-15.9-1.4-7.9-2.8-11.4-3.7S322.1,491,319.8,490.3Z" transform="translate(-25 -35.3)" style="fill:#d89082;fill-rule:evenodd"/><path d="M238.7,435.6a4.2,4.2,0,0,0-3,.8,2.1,2.1,0,0,0-.4,1.9,18,18,0,0,0,.6,2.2c.1.7.2,1.3-1.3.4a59.9,59.9,0,0,0-10.1-5.5,119.4,119.4,0,0,0-22.2-6.5,147.6,147.6,0,0,0-26.2-3.2c-8.5-.2-16.4.5-22.3,2.1a38.3,38.3,0,0,0-11.4,5c-1.8,1.2-1.8,1.2-.4,1.2s4.3.2,8.3.6,9.2,1.2,13.2,1.9,6.8,1.4,2.9,6.3-14.3,14.1-20.4,20.6-7.7,10.2-8.6,12.8a21,21,0,0,0-1.5,5.3c-.2,1.2-.3,2,1.2,3s4.4,2,12.9,3.4,22.7,3.2,32.6,5.2,15.5,4.2,19.8,7.2,7.5,6.7,8.9,10,1.2,6.2-1.3,11.1-7.4,11.7-11,17.8a145.7,145.7,0,0,0-7.7,15.4c-1.8,4.2-3.1,7.2-3.4,11.4a51.1,51.1,0,0,0,1.2,13.3c.8,3.5,1.5,5.1,3.5,6.7a31.3,31.3,0,0,0,8.6,4.4,34,34,0,0,0,9.3,2.3,13.5,13.5,0,0,0,5.4-.8l2-1c.4-.2.7-.2,2.6,1.2s5.3,4.2,8.6,6.2a31.8,31.8,0,0,0,9.6,3.9,34.3,34.3,0,0,0,11,1,26.6,26.6,0,0,0,8.9-2.8,37.1,37.1,0,0,0,6.2-3.7,3.8,3.8,0,0,0,1.5-2.1c.1-.4.1-.4,1.1,0a30.1,30.1,0,0,0,5.8,1.6,45.8,45.8,0,0,0,10.1.7,35.5,35.5,0,0,0,10.1-1.8,28.3,28.3,0,0,0,7.4-3.7,11,11,0,0,0,3.6-3.5,6.6,6.6,0,0,0,1.2-4.5c-.2-1.7-1.2-3.7-3.2-6.1a30.9,30.9,0,0,0-7.9-6.9,16.2,16.2,0,0,0-9.3-1.8,71.9,71.9,0,0,0-12,1.7,98.3,98.3,0,0,0-12.3,3.3c-3.4,1.1-5.5,2.2-8.2,2.6s-5.9.3-10.1-.3a107.7,107.7,0,0,1-12.7-3,24.2,24.2,0,0,1-7.2-3.4,44.3,44.3,0,0,1-5.3-4.8,5.6,5.6,0,0,1-1.9-3,37.6,37.6,0,0,1-2.1-8.7,38.7,38.7,0,0,1,1.2-14.1c1.3-4.7,3.9-9.1,6.2-12.8s4.5-6.9,6.6-10.3,4.1-7,9-15.6,12.8-22,16.9-29.2,4.7-8.2,4.2-10.7a48.4,48.4,0,0,0-3.3-9.7,32,32,0,0,0-4.5-7.8,27.8,27.8,0,0,0-6.1-5.5A9,9,0,0,0,238.7,435.6Z" transform="translate(-25 -35.3)" style="fill:#dc968a;fill-rule:evenodd"/><path d="M275.6,94.2q-31.5,52.2-15.4,68.4,7.2-74.4,78.9-108.8,8.5,29.9,38,89.3,18-20.9,26.7-44.1,34.6,26.3,38.6,91.1,11.1-39.6,16-46.7,27.9,34.7,9.3,119c50.3-89.3,94.9-86.8,50,31.7q69,105.6-39.1,228.9a33.8,33.8,0,0,0-16.5.5c5.9-26.3,12-44.1,20.5-61.1,8.2-18.9,5.3-36.2-1-54.5-14.5-50.7-12.2-47.6,1.1-94.9,1.5-8.8-48-59-94.3-66.2-3.4-.7-19.8,3.6-49,12.9q-24.4,6.2-53.9-29.9c-13.5-16-19-30.7-16.7-44.3-7.5,7.1-7.5,11.6-6.1,19.5,3.7,10.8,13.7,25.3,29.9,43.8a144.4,144.4,0,0,1-33.1-11q-45.3,17.1-77.4,7.5c3.9,5.7,12.1,9.6,24.7,11.6q-79.2,47.7-108.4,185,7.9-134.5,46.1-165.9-14.7-42.1,3.1-75.5c9.1,12,9,10.4,20.6,35.7-14.3-55.7-4.4-83.6,34.5-100.1,0,10.2,1.4,19,4.3,26.5Q222,100.5,275.6,94.2Z" transform="translate(-25 -35.3)" style="fill:#482a0f;fill-rule:evenodd"/><path d="M61.3,469.2c7.3-4.3,27.3-4.3,31.8-.4-2.7,38-23.7,54.3-38,123.8C19,565.5,49.7,476.5,61.3,469.2Z" transform="translate(-25 -35.3)" style="fill:#ec9e96;fill-rule:evenodd"/><path d="M446.2,657.8C500.7,640,523,598.1,508.1,553c-10.2-27.7-46-22.9-46.4-16.6C458.3,593.9,453.3,633.1,446.2,657.8Z" transform="translate(-25 -35.3)" style="fill:#f2b3ac;fill-rule:evenodd"/><path d="M217.7,584.7c6,5.6,15,10.3,26.9,14.1q-20.4-11.7-34.1-34.3c-2.1-3.8-5.6-2.9-6.2,0a8.4,8.4,0,0,0,2.3,6.7c-2.4-.8-3.9,1.3-3.6,3.5C203.8,580.3,210.3,585.4,217.7,584.7Z" transform="translate(-25 -35.3)" style="fill:#000002;fill-rule:evenodd"/><path d="M183.5,567.9c-.6,7.7,4.6,15.9,11.1,18.1-10.7-16.2-7.1-27.2,4.3-27.6C191.9,552,184.7,556.8,183.5,567.9Z" transform="translate(-25 -35.3)" style="fill:#000002;fill-rule:evenodd"/><path d="M311.8,578.4c.6-9.2-9-16.3-14.8-16.9,13.7,11.8,14.2,23.4-.2,25.2C303.2,592.2,310.9,585.4,311.8,578.4Z" transform="translate(-25 -35.3)" style="fill:#000002;fill-rule:evenodd"/><path d="M270.5,588.1c3.9,6,15,5.2,16.1.7,3.8,1.3,5.4,1.2,4.9-.5-5.3-8-26-8.6-26.2,2.5,0,1.8,2.3,1.5,3.1.7A8.2,8.2,0,0,0,270.5,588.1Z" transform="translate(-25 -35.3)" style="fill:#000002;fill-rule:evenodd"/><path d="M215.9,563c7.7,13.7,24,18.6,41,12.2C239.9,580,226.3,576,215.9,563Z" transform="translate(-25 -35.3)" style="fill:#000002;fill-rule:evenodd"/><path d="M235.7,502.1c4.3-6,12.6-17.8,17.6-25.4s6.3-11.2,6.8-13.8.1-4.3-.9-7.4a62.9,62.9,0,0,0-5.1-11.7,59.1,59.1,0,0,0-8.5-10.9c-2.5-2.3-3.8-2.6-4.8-2.8a3.6,3.6,0,0,0-2.2.3,2.7,2.7,0,0,0-.8,3.8c.5,1,1.8,2.1,4,4.7s5.2,6.7,7.4,10.1a40.9,40.9,0,0,1,4.5,7.9,11.5,11.5,0,0,1,1.2,4.7c0,1.2-.3,2.1-4.2,9.5s-11.2,21.3-15,28.5-4.2,8-4.3,8.4-.2.4-.1.3S231.5,508.1,235.7,502.1Z" transform="translate(-25 -35.3)" style="fill:#000002;fill-rule:evenodd"/><path d="M197.5,395.1h-.7c-14.3,2.7-28.9,5-42.4,10.2l-7.5,2.6c-3.9,1.3-4.4.1-1.5-2.5l5.9-5.4a205.7,205.7,0,0,1,54-32.4l20.5-8.2-2.1,1.6,4.6-1.6-1.1,1a155.5,155.5,0,0,1,19.2-3.9l1.2-.2c3.5,0,4.1,1.7,1.8,5.2a12.3,12.3,0,0,0-1.4,2.5,44,44,0,0,0-2.1,5c-2.2,5.6-4.1,11.4-6,17.1l-.6,1.9-2,.2c-10.1,1-20.2,3.6-30.3,5.2h-1.7l-6.8,1.2Z" transform="translate(-25 -35.3)" style="fill:#000002;fill-rule:evenodd"/><path d="M336,447.6a92.7,92.7,0,0,0-14.4,2.1c27.2-15.5,75.7-3.2,96.7,32.1,3.7,6.9,1.1,19.8-12.3,19.8a398.3,398.3,0,0,1-65.1-5.1c8.1-1.9,17-.6,37,1.2a127.5,127.5,0,0,0,26.1.1c10.2-1.6,12.3-7.2,6.3-16.9-26.1-32.3-67.8-45.5-92.4-15.1A31.2,31.2,0,0,1,336,447.6Z" transform="translate(-25 -35.3)" style="fill:#000002;fill-rule:evenodd"/><path d="M322.9,460.4c-1.5,3.8-3,7.6-4.2,11.5a41.1,41.1,0,0,0-1.7,11.5c.1,3.3,1,5.9,2.9,7.7s4.8,3.1,9.1,3.7a126.1,126.1,0,0,0,16.1,1c7.2-.8,16.2.4,32.8,1.9a127.5,127.5,0,0,0,26.1.1c10.2-1.6,12.3-7.2,6.3-16.9C386,450.7,347.9,437.2,322.9,460.4Z" transform="translate(-25 -35.3)" style="fill:#ecdfe0;fill-rule:evenodd"/><path d="M382.7,498.1a54.6,54.6,0,0,0,4.7-3.1,22.9,22.9,0,0,0,6.9-8,26.7,26.7,0,0,0,3-12.4,39.9,39.9,0,0,0-.5-7.6c-15-12.7-32.5-19.7-48.6-18.1l-2.8,2.7a52.2,52.2,0,0,0-5.7,6.8,35.3,35.3,0,0,0-5.1,10.7,25.9,25.9,0,0,0,.2,10.5,19.1,19.1,0,0,0,2,6,44,44,0,0,0,4.3,5.9,34.3,34.3,0,0,0,4.2,4.3c7.1-.7,16.1.4,32.6,1.9Z" transform="translate(-25 -35.3)" style="fill:#301a0c;stroke:#301a0c;stroke-miterlimit:22.925600000000003;stroke-width:0.5669000000000001px;fill-rule:evenodd"/><path d="M215.5,457.9c-.7-1.6-2.5-6.2-4.3-9.5s-3.6-5.2-6.7-6.6-7.8-2.6-13.7-3.1a67.1,67.1,0,0,0-20.8,1.4c-7.8,1.8-16.4,5.3-22.2,9.4A35.4,35.4,0,0,0,137,462a22.3,22.3,0,0,0-2.8,8.4c-.3,2.7-.3,5.9,3.5,7.4s11.4,1.3,20.7,1.4,20.2.5,27.7.7l13.7.4c2,.1,2,.1.9.2l-8.2.9c-4.8.5-12.1,1.2-19.5,1.7s-14.9.5-21.7.6-13,.2-16.8-1a7.8,7.8,0,0,1-5.8-6.8,24.3,24.3,0,0,1,1-10.2,32,32,0,0,1,4.7-9.9,41,41,0,0,1,8.8-8.9,56.7,56.7,0,0,1,14.5-8,72.9,72.9,0,0,1,22.9-5,73.8,73.8,0,0,1,22.8,2.8c5.4,1.6,7.2,3.3,8.7,6.6a67.4,67.4,0,0,1,3.3,11.8C216,458.3,216.3,459.6,215.5,457.9Z" transform="translate(-25 -35.3)" style="fill:#000002;fill-rule:evenodd"/><path d="M215.8,458.5a13.9,13.9,0,0,1,0,6.1,23.7,23.7,0,0,1-3.3,8.5,15.4,15.4,0,0,1-6.2,5.3,19.7,19.7,0,0,1-5.4,1.8h-1.1l-13.7-.4c-7.5-.2-18.5-.6-27.7-.7s-16.9.1-20.7-1.4-3.8-4.7-3.5-7.4A22.3,22.3,0,0,1,137,462a35.4,35.4,0,0,1,10.8-12.5c5.8-4.1,14.4-7.6,22.2-9.4a67.1,67.1,0,0,1,20.8-1.4c5.9.5,10.5,1.6,13.7,3.1s4.9,3.4,6.7,6.6,3.6,7.9,4.3,9.5A1.6,1.6,0,0,0,215.8,458.5Z" transform="translate(-25 -35.3)" style="fill:#ecdfe0;fill-rule:evenodd"/><path d="M207.5,443.6l.5,1.5a32.3,32.3,0,0,1,1,9,34.7,34.7,0,0,1-1.5,9.1,41.3,41.3,0,0,1-3.5,8.2,25.8,25.8,0,0,1-5.3,6.4l-3,2.4-9.6-.3c-7.5-.2-18.5-.6-27.7-.7h-.2l-.4-.5a40.4,40.4,0,0,1-4.8-7.5,19.7,19.7,0,0,1-1.8-9.9,34.8,34.8,0,0,1,3.1-12.9c.5-1.1,1-2.3,1.6-3.4a73.7,73.7,0,0,1,14.1-4.9,67.1,67.1,0,0,1,20.8-1.4c5.9.5,10.5,1.6,13.7,3.1A14.9,14.9,0,0,1,207.5,443.6Z" transform="translate(-25 -35.3)" style="fill:#301a0c;stroke:#301a0c;stroke-miterlimit:22.925600000000003;stroke-width:0.5669000000000001px;fill-rule:evenodd"/><path d="M177.5,458.2c3.6,0,6.6,2,6.6,4.6s-3,4.6-6.6,4.6-6.7-2.1-6.7-4.6S173.8,458.2,177.5,458.2Z" transform="translate(-25 -35.3)" style="fill:#ecdfe0;stroke:#231f20;stroke-miterlimit:22.925600000000003;stroke-width:0.5669000000000001px;fill-rule:evenodd;opacity:0.6"/><path d="M356.4,451.7c8.7-.4,15.6,2.8,15.6,7.2s-8.5,10.9-17.2,11.3-14.2-3.5-14.2-8.6S347.7,452,356.4,451.7Z" transform="translate(-25 -35.3)" style="fill:#ecdfe0;fill-rule:evenodd;opacity:0.65"/><path d="M208.7,448.4a16.1,16.1,0,0,0-10.7-3.7c-7.3,0-13.3,4-13.3,8.9s6,8.9,13.3,8.9a16.5,16.5,0,0,0,10.5-3.4c.2-1.6.4-3.3.5-5A53,53,0,0,0,208.7,448.4Z" transform="translate(-25 -35.3)" style="fill:#ecdfe0;fill-rule:evenodd;opacity:0.6"/><path d="M334.5,470a17.3,17.3,0,0,0-.3,4.5,5.7,5.7,0,0,0,2.5.7c2.5.2,5-1.4,5-2.8s-2-2.5-4.6-2.7A5.3,5.3,0,0,0,334.5,470Z" transform="translate(-25 -35.3)" style="fill:#ecdfe0;fill-rule:evenodd;opacity:0.65"/><path d="M237,385.2q6.9-21.6,9.9-25.5a169.6,169.6,0,0,0-28.2,6.5,62,62,0,0,0-12.1,22.9c9.4-1.5,19.5-2.8,30.4-3.9Zm-22.4-17.7c-6.1,5.5-9.3,12.8-9.8,21.9l-6.9,1.2h0A55.4,55.4,0,0,1,211,368.8l3.6-1.3Zm-8.2,3.1c-18.5,7.4-36.2,18.1-53.1,31.9,11.8-4.6,26.1-8.4,42.9-11.6C196.6,382.3,200,375.6,206.4,370.6Z" transform="translate(-25 -35.3)" style="fill:#2a150a;fill-rule:evenodd"/><path d="M346.5,392.1a179.9,179.9,0,0,1,34.6,9.2q-5.7-12.4-3.3-22.8l-4.2-2.2a49.4,49.4,0,0,0-1.6,20.2c-2.7-6.1-3-13.2-.8-21.4a230.6,230.6,0,0,0-24.6-10.7c-2.1,10.5-2.1,19.7-.1,27.7Zm35.1,9.4c-2-9.3-2.4-16.5-1.4-21.6a179.9,179.9,0,0,1,18.4,11.7c3.7,5.4,5.4,11.9,5,19.4-7.5-3.6-14.8-6.8-22-9.5Zm23.3,10.1A349.6,349.6,0,0,1,435.5,429a155.4,155.4,0,0,0-32.4-34C404.9,398.9,405.5,404.4,404.9,411.6Z" transform="translate(-25 -35.3)" style="fill:#4b2d0e;fill-rule:evenodd"/><path d="M143.8,651.4q33.4,19.4,86.6,26.1-41.7-9.3-72.2-22.9l1.5-.5,11.3-4.6c3.6-1.3,6-1.9,8-2.9s3.6-2.1,6-3.4a32.7,32.7,0,0,1,10.5-3.5,55,55,0,0,1,15.6-.7c4.6.5,7.3,2,9.8,3.1a28.1,28.1,0,0,0,8.2,2.3,52.9,52.9,0,0,0,11.4.4c4-.3,7.7-1.1,11-1.5s6.2-.4,11.7,1.1a146.3,146.3,0,0,1,20.6,7.5c6.9,3,12.4,6.1,18.8,9.5s13.7,7,17.4,8.9,3.8,1.8,3.3,1.8l-5.2.3c-3.8.3-10.5,1-15.7,1.7s-8.9,1.6-14.3,2.3-12.5,1.2-20.1,1.4-15.7.1-20.7,0-7-.4-8-.5h-.5l4.2.6,11.7,1.8a125.9,125.9,0,0,0,14.3,1.1c5.2.1,11.1-.3,17.2-.7s12.3-1.1,19.1-1.9,14.1-1.9,18.8-2.7,6.9-1.3,8.8-1.8l3.3-1.1,2.5,2.1a7.2,7.2,0,0,0,2.4,1.6,4.2,4.2,0,0,0,2.5-.1,1.2,1.2,0,0,0,.7-1.4,5.3,5.3,0,0,0-.7-2.6,21.2,21.2,0,0,0-3.2-4.3,41.8,41.8,0,0,0-5.5-4.6c-1.6-1-2.5-1.1-3.3-.7a2.8,2.8,0,0,0-1.5,2.9,10.1,10.1,0,0,0,2.7,4c-.2.3-.6.5-1.6.7s-2.9.5-3.9.7-1.1.1-3.5-1-6.9-3.5-11.8-6.3-10-5.9-14-8.4l-9-5.3-3.7-1.8a36.3,36.3,0,0,0-3.8-1.4l-7.1-2.3c-3.1-1.1-6.9-2.7-10.4-3.7a50.3,50.3,0,0,0-9.3-1.6,15.4,15.4,0,0,0-5.7.1c-1.8.3-4,1-7.3,1.4a45.2,45.2,0,0,1-21.6-2.4,41.5,41.5,0,0,0-7-2,36.5,36.5,0,0,0-9.1-.3,64.9,64.9,0,0,0-13,2.1,100,100,0,0,0-11.8,4.7L168,647.1c-4.3,1.8-9.7,4.1-12.2,5.4l-1,.6c-2.8-1.3-5.6-2.7-8.2-4.1a4.2,4.2,0,0,1,1.2-1.6c.7-.6,1.6-1,2.2-1.5s.9-1.2.6-1.6-1.2-.5-2.6-.3a14.1,14.1,0,0,0-4.9,1.6,9.4,9.4,0,0,0-3.3,3.7,5,5,0,0,0-.6,2.9,1.8,1.8,0,0,0,.6,1.4,1.1,1.1,0,0,0,1.2,0c.5-.3,1-.9,1.7-1.4Z" transform="translate(-25 -35.3)" style="fill:#000002;fill-rule:evenodd"/><path d="M176.3,700.1c30.2,17.7,77.7,19.6,109.9,1.4C249.9,728.2,195.1,720.9,176.3,700.1Z" transform="translate(-25 -35.3)" style="fill:#000002;fill-rule:evenodd"/><path d="M183.9,736.6a42.9,42.9,0,0,1,9.7-2.9,146.3,146.3,0,0,1,20.3-1.9,126.8,126.8,0,0,1,19,1,94.3,94.3,0,0,1,17.1,3.6,51.4,51.4,0,0,1,13.7,6.7,30,30,0,0,1,6.6,6.9c1.1,1.5,1.1,1.5.1-.2a37,37,0,0,0-5.8-8.1,27.8,27.8,0,0,0-11.8-6.7,116.8,116.8,0,0,0-18-3.3c-5.7-.6-10.1-.8-15-1.2s-10.3-.8-15.5-.7a51.8,51.8,0,0,0-13.6,2.1,20.6,20.6,0,0,0-6.9,3.7C182.6,736.6,182.5,737,183.9,736.6Z" transform="translate(-25 -35.3)" style="fill:#000002;stroke:#000002;stroke-miterlimit:22.925600000000003;stroke-width:0.5669000000000001px;fill-rule:evenodd"/><path d="M220.8,806.4c-1.5-1.4-4.4-4.5-7-6.7a50.4,50.4,0,0,0-6.3-4.5c-1.4-.9-1.6-1.4-1.8-1.9a4.2,4.2,0,0,1-.1-1.6,3.7,3.7,0,0,1,.7-1.6,4.1,4.1,0,0,1,1-.9,1.6,1.6,0,0,1,1.2-.1,11.1,11.1,0,0,1,3,1.8,49.5,49.5,0,0,1,6.1,5.6,22.7,22.7,0,0,1,3.7,6,14.5,14.5,0,0,1,.9,4.1C222.3,807.5,222.2,807.8,220.8,806.4Z" transform="translate(-25 -35.3)" style="fill:#000002;stroke:#231f20;stroke-miterlimit:22.925600000000003;stroke-width:0.5669000000000001px;fill-rule:evenodd"/><path d="M173,685.4a48.5,48.5,0,0,1-4.4-12.8c-.6-2.9-.4-3.6-.2-4.1s.6-.5,4.4-.2a124.2,124.2,0,0,1,19.5,3.1c8.7,2,18.8,5.4,26.9,7.4s14.3,2.5,22.2,3.3,17.4,1.6,25.3,2.8,14,2.6,18.4,3.1a28.3,28.3,0,0,0,8.4-.2c1.3-.3,1.3-.2-.9,1.8a74.3,74.3,0,0,1-12.7,9.8,127.3,127.3,0,0,1-20.6,9.3,123.4,123.4,0,0,1-15.7,4.6l-4.4.9a113.6,113.6,0,0,0,36.9-7.8,98.1,98.1,0,0,0,20.6-12.5c4.9-3.7,11.8-9.2,16.8-13.1L320,676c-4.4.7-9.7,1.5-14.7,2.1-6.8.8-13.1,1.4-19.1,1.9s-12,.8-17.2.7a125.9,125.9,0,0,1-14.3-1.1L243,677.8l-4.2-.6h.5c1,.1,2.9.3,8,.5s13.1.3,20.7,0,14.7-.7,20.1-1.4,9.1-1.5,14.3-2.3,11.9-1.4,15.7-1.7l5.2-.3c.5,0,.4,0-3.3-1.8l-1.7-.9-5.3,1.2c-4.3,1-11.7,2.5-17,3.3s-8.5.8-15.6-.2-18-2.9-25.4-3.7a100.1,100.1,0,0,0-14.9-.7,48.6,48.6,0,0,1-9.9-.9q-5.4-1.2-13.2-3.6a126.3,126.3,0,0,0-17.7-4.6c-6.4-1-13.1-1.1-19.2-1.8a78.7,78.7,0,0,1-14.6-2.9c-3-.9-3.4-1.5-2.6-2.3a22.1,22.1,0,0,1,2.4-1.4l-5.6,2.3-1.5.5q30.5,13.6,72.2,22.9-46.7-6-78.2-21.6c0,.3-.1.7-.1,1.2a40.6,40.6,0,0,0,2.6,10.1,73.5,73.5,0,0,0,7.9,16.4,116.7,116.7,0,0,0,11.8,14.3l2.2,2.3a99.1,99.1,0,0,0,16.8,7.7c-1.9-1.8-6.2-5-10-8.7A52.2,52.2,0,0,1,173,685.4Z" transform="translate(-25 -35.3)" style="fill:#f3818f;fill-rule:evenodd"/><path d="M202.8,679.1c7.7.6,13.9,5.1,13.9,10.1s-6.2,8.5-13.9,7.8-14-5.1-14-10.1S195.1,678.4,202.8,679.1Z" transform="translate(-25 -35.3)" style="fill:#f8b2bb;fill-rule:evenodd"/><path d="M236,685.6c5.5-.3,10,2.6,10,6.5s-4.5,7.2-10,7.5-9.9-2.6-9.9-6.5S230.5,685.9,236,685.6Z" transform="translate(-25 -35.3)" style="fill:#f8b2bb;fill-rule:evenodd"/><path d="M199.3,660.2a126.3,126.3,0,0,1,17.7,4.6q7.8,2.4,13.2,3.6a48.6,48.6,0,0,0,9.9.9,100.1,100.1,0,0,1,14.9.7c7.4.8,18.3,2.8,25.4,3.7s10.3,1,15.6.2,12.7-2.3,17-3.3l5.3-1.2-15.7-8c-6.4-3.4-11.9-6.5-18.8-9.5a146.3,146.3,0,0,0-20.6-7.5c-5.5-1.5-8.4-1.5-11.7-1.1s-7,1.2-11,1.5a52.9,52.9,0,0,1-11.4-.4,28.1,28.1,0,0,1-8.2-2.3c-2.5-1.1-5.2-2.6-9.8-3.1a55,55,0,0,0-15.6.7,32.7,32.7,0,0,0-10.5,3.5c-2.4,1.3-4,2.5-6,3.4s-4.4,1.6-8,2.9l-5.7,2.3a22.1,22.1,0,0,0-2.4,1.4c-.8.8-.4,1.4,2.6,2.3a78.7,78.7,0,0,0,14.6,2.9C186.2,659.1,192.9,659.2,199.3,660.2Z" transform="translate(-25 -35.3)" style="fill:#f69ca8;fill-rule:evenodd"/><path d="M216.7,689.2c0,4.9-6.2,8.5-13.9,7.8s-14-5.1-14-10.1,6.3-8.5,14-7.8,13.9,5.1,13.9,10.1Zm2.5-10.4c-8.1-2-18.2-5.4-26.9-7.4a124.2,124.2,0,0,0-19.5-3.1c-3.8-.3-4.1-.2-4.4.2s-.4,1.2.2,4.1a48.5,48.5,0,0,0,4.4,12.8,52.2,52.2,0,0,0,10.4,13.8c3.8,3.7,8.1,6.9,10,8.7a126.8,126.8,0,0,0,45.8,6.3l4.4-.9a123.4,123.4,0,0,0,15.7-4.6,127.3,127.3,0,0,0,20.6-9.3,74.3,74.3,0,0,0,12.7-9.8c2.2-2,2.2-2.1.9-1.8a28.3,28.3,0,0,1-8.4.2c-4.4-.5-10.5-1.9-18.4-3.1s-17.5-2.1-25.3-2.8-14-1.3-22.2-3.3ZM236,699.6c-5.5.3-9.9-2.6-9.9-6.5s4.4-7.2,9.9-7.5,10,2.6,10,6.5S241.5,699.3,236,699.6Z" transform="translate(-25 -35.3)" style="fill:#f59aa7;fill-rule:evenodd"/><path d="M56.5,558.6c-.6-10,2.2-20.2,15.2-23.1l1.1-2.9c-4.7-1.7-10.7-.2-15,4.6C50.1,544.9,50,555.8,56.5,558.6Z" transform="translate(-25 -35.3)" style="fill:#000002;fill-rule:evenodd"/><path d="M77.1,495.6c1.6,4.3,2.9,10.4,3.8,13.6l.7,2.1c1.7-4,3.2-7.8,4.6-11.6-.5-1.6-1.1-3.2-1.7-4.6a42.2,42.2,0,0,0-3.6-7.6,17.2,17.2,0,0,0-4.2-4.3,13,13,0,0,0-5.5-2.4,17,17,0,0,0-6.4.4,10,10,0,0,0-4.4,2.1c-1.2,1.1-2.3,2.6-1.6,3s3.3-.1,5.8-.3a12.5,12.5,0,0,1,7.1,1.4C73.8,488.8,75.6,491.3,77.1,495.6Z" transform="translate(-25 -35.3)" style="fill:#000002;fill-rule:evenodd"/><path d="M471.1,603.6c-4.5-1.8-10.2-1.4-15.1.7-.2,1.8-.5,3.6-.7,5.4,15.8-6.1,20.3,3.3,19.4,11.9C482.3,616.4,480.7,607.9,471.1,603.6Z" transform="translate(-25 -35.3)" style="fill:#000002;fill-rule:evenodd"/><path d="M460,562.6l-.6,7.4a75.2,75.2,0,0,1,7.8-5.5,48.2,48.2,0,0,1,15-5.5c4.5-1,8.1-1.3,11.1-.5a17.3,17.3,0,0,1,6.8,4.3c1.4,1.3,1.7,1.8,1.7.8a22.9,22.9,0,0,0-1.4-5.9,8.5,8.5,0,0,0-4.6-5.1,22.4,22.4,0,0,0-10.8-1.1,44.5,44.5,0,0,0-14,4.2A63,63,0,0,0,460,562.6Z" transform="translate(-25 -35.3)" style="fill:#000002;fill-rule:evenodd"/><path d="M478.6,304.3a26.8,26.8,0,0,1,3.7,6.5q.3-1.2.6-2.1a21.1,21.1,0,0,1,2.7-5.8,6.6,6.6,0,0,1,2.1-2.1l-1.1.3a57.1,57.1,0,0,0-6.5,2.3Z" transform="translate(-25 -35.3)" style="fill:#25140a;fill-rule:evenodd"/><path d="M481.1,318.8c-11.9,41.4-13.4,40.5.5,89.1,6.3,18.3,9.2,35.6,1,54.5-8.5,17-14.6,34.8-20.5,61.1a32,32,0,0,1,14.5-.8c.4-.9.7-1.9,1.1-2.9,2-5.9,5.1-14.6,7.8-24.3a250.8,250.8,0,0,0,6.6-30.8c1.5-10.5,2.2-20.7,2.5-26.9s.1-8.3.1-9.3,0-.7,1.4.4a40.2,40.2,0,0,0,7.3,4.1,27.8,27.8,0,0,0,11.4,1.9,120.5,120.5,0,0,0,13-1.4c2.9-.5,3-.5.1-1.2a133,133,0,0,1-14-3.9A71.9,71.9,0,0,1,502,423a62.1,62.1,0,0,1-5.8-3.6c-1-.8-1.1-1.1-1.3-2.8s-.4-5.1-.5-6.8-.1-1.6.7-1.1a26.9,26.9,0,0,0,5,2.7,48.5,48.5,0,0,0,10.5,2.8,43.3,43.3,0,0,0,9.1-.1c1.8-.2,1.8-.2.1-.5a26.4,26.4,0,0,1-8.6-2.8,36.1,36.1,0,0,1-9.9-8.7,32.6,32.6,0,0,1-4.4-7.8,9.2,9.2,0,0,0-2.3-3.5c-.9-.8-2.1-1.5-3.1-2.3s-1.7-1.5-3.2-5.1a124.4,124.4,0,0,1-5.6-17.2,90.3,90.3,0,0,1-2.4-20.8c-.1-7.1.7-14.3.8-18.9S481,320.8,481.1,318.8Z" transform="translate(-25 -35.3)" style="fill:#25140a;fill-rule:evenodd"/><path d="M396.6,237.3c-9.6,5.1-21.7,10.2-27.8,13.1l-1.8.9c12.1-3.4,19.3-4.9,21.4-4.5,18.2,2.9,36.9,12.3,52.8,23.3l1.7-1.1a70.3,70.3,0,0,0,9.9-7.7,28.7,28.7,0,0,0,5.2-7c.8-1.4.8-1.5-.4-.9l-5.6,2.8a17.8,17.8,0,0,1-5.1,1.4,37.2,37.2,0,0,1-5.8.1,29.5,29.5,0,0,1-4.6-.3,6.7,6.7,0,0,1-2.3-.6c-.4-.3-.4-.7-.4-1.6s0-2.4-.1-3.6a11.2,11.2,0,0,0-.4-2.9,6,6,0,0,0-.8-2,8,8,0,0,0-1.5-1.8,7.6,7.6,0,0,0-2.2-1.8,5,5,0,0,0-2.6-.6l-3,.5c-.7.2-.9.4.3-1.5a56.7,56.7,0,0,0,5.1-9.5,21.2,21.2,0,0,0,1.4-9.9,24.8,24.8,0,0,0-1.3-6.3c-.4-1.2-.4-1.2-1.7,0s-4,3.7-8.8,7.4A147.4,147.4,0,0,1,396.6,237.3Z" transform="translate(-25 -35.3)" style="fill:#25140a;fill-rule:evenodd"/><path d="M327.7,254.3q-59.2-45-33.3-130.7,1.8,28.7,11.4,39-.4-74.2,33.3-108.8-71.7,34.4-78.9,108.8-16-16.2,15.4-68.4-53.6,6.3-68.6,68.4c-2.9-7.5-4.3-16.3-4.3-26.5-38.9,16.5-48.8,44.4-34.5,100.1-11.6-25.3-11.5-23.7-20.6-35.7q-17.8,33.3-3.1,75.5-38.1,31.3-46.1,165.9,29.3-137.2,108.4-185c-12.6-2-20.8-5.9-24.7-11.6q32.1,9.6,77.4-7.5a144.4,144.4,0,0,0,33.1,11c-16.2-18.5-26.2-33-29.9-43.8-1.4-7.9-1.4-12.4,6.1-19.5-2.3,13.6,3.2,28.3,16.7,44.3q29.4,36,53.9,29.9l16.7-5.2C343,257.9,333.1,258.1,327.7,254.3Z" transform="translate(-25 -35.3)" style="fill:#261209;fill-rule:evenodd"/><path d="M518.5,434.7c-8.4,20.1-20.7,40.4-33,60.8-2.7,9.7-5.8,18.4-7.8,24.3-.4,1-.7,2-1.1,2.9l2,.3q108-123.5,39.1-228.9c16.3-43,20.8-70.8,17.5-84.4-7.3,20.1-14.5,40.1-19,52.6s-6.1,17.3-6.8,21.8a24.6,24.6,0,0,0,1.6,14.1c2.2,5.3,6.3,11.9,10.8,22.6a130.6,130.6,0,0,1,10,43.8c.8,18.4-2.1,40.5-10.5,62.9-.3,1-.7,1.9-1.1,2.9l7.7,1.9c2.9.7,2.8.7-.1,1.2S522.1,434.4,518.5,434.7Z" transform="translate(-25 -35.3)" style="fill:#f16122;fill-rule:evenodd;opacity:0.1"/><path d="M453.8,153.4c11.6,17.3,18.6,39.1,20.7,65.2q3.9-50.4-16.1-75.2C457.1,145.2,455.6,148.5,453.8,153.4Z" transform="translate(-25 -35.3)" style="fill:#f16122;fill-rule:evenodd;opacity:0.1"/><path d="M377.3,158.2q26.4-21.3,30.9-38.3,27.2,35.8,34.2,70.2-3.9-64.9-38.6-91.1-8.7,23.3-26.7,44.1-29.4-59.4-38-89.3Q322.6,116.1,377.3,158.2Z" transform="translate(-25 -35.3)" style="fill:#f16122;fill-rule:evenodd;opacity:0.1"/><path d="M221.2,742.5c14.2,2.2,25.7,10.6,25.7,18.8s-11.5,13-25.7,10.8-25.8-10.7-25.8-18.8S206.9,740.3,221.2,742.5Z" transform="translate(-25 -35.3)" style="fill:#fbcbc7;fill-rule:evenodd"/><path d="M265.3,519.9a16.7,16.7,0,0,0-5,0,6.4,6.4,0,0,0-4.7,3.1c-1.3,2-2.2,5.3-2.9,8.7a47.9,47.9,0,0,0-1.2,8.8c-.1,2.2.3,3.4,1.1,4.3a5.4,5.4,0,0,0,3.1,1.8,10.3,10.3,0,0,0,4.6-.1,14.4,14.4,0,0,0,6.1-3.2,18.3,18.3,0,0,0,4.8-8.3,19.7,19.7,0,0,0,.2-9.9,7.4,7.4,0,0,0-3.3-4.3A5.5,5.5,0,0,0,265.3,519.9Z" transform="translate(-25 -35.3)" style="fill:#fbcfcb;fill-rule:evenodd"/><path d="M275.6,465.2c-1.7,4.3-4,12.9-6.3,19.7s-4.6,12-5.8,15.3-1.1,4.9-.5,6.5a6.2,6.2,0,0,0,3.9,3.7,8.2,8.2,0,0,0,6.3-1.3c2.1-1.3,3.7-3.4,5.5-7.1a58.6,58.6,0,0,0,4.7-14.8,69,69,0,0,0,.6-14.6,54.4,54.4,0,0,0-.8-6.9,10.2,10.2,0,0,0-.9-2.4,7.3,7.3,0,0,0-1.4-1.6,3.7,3.7,0,0,0-1.9-.8C278.3,460.8,277.3,460.9,275.6,465.2Z" transform="translate(-25 -35.3)" style="fill:#fbcfcb;fill-rule:evenodd"/><path d="M467.2,564.5a75.2,75.2,0,0,0-7.8,5.5c-1,12.5-2.2,23.9-3.4,34.3,4.9-2.1,10.6-2.5,15.1-.7,9.6,4.3,11.2,12.8,3.6,18,.9-8.6-3.6-18-19.4-11.9-2.6,19.9-5.6,35.8-9.1,48.1l4.9-1.7a5.4,5.4,0,0,0,.5-1.1c2-4,4.8-9.2,7.1-12.1s4.4-3.6,7.9-4.6,8.6-2.3,12.5-5.1,6.8-7.1,10-12.8a104.2,104.2,0,0,0,9-21.9,129.5,129.5,0,0,0,4-25.7,36.2,36.2,0,0,0-.3-9.4v.2c0,1-.3.5-1.7-.8a17.3,17.3,0,0,0-6.8-4.3c-3-.8-6.6-.5-11.1.5A48.2,48.2,0,0,0,467.2,564.5Z" transform="translate(-25 -35.3)" style="fill:#d28879;fill-rule:evenodd"/><path d="M72.8,532.6c3.1-7.9,6.1-14.8,8.8-21.3l-.7-2.1c-.9-3.2-2.2-9.3-3.8-13.6s-3.3-6.8-5.4-8.2a12.5,12.5,0,0,0-7.1-1.4l-2.3.3a15.3,15.3,0,0,0-3.1,2.6c-1.4,1.6-2.4,3.5-3.8,7s-3.2,8.4-4.5,18.4a318.9,318.9,0,0,0-2.2,35.4c.1,10.3,1,15.8,1.9,19.3s1.6,4.9,2,6.4a17.1,17.1,0,0,1,.3,6.4c-.2,2.3-.6,5.5-.7,8.3a34.7,34.7,0,0,0,2.9,2.5,355.8,355.8,0,0,1,16.6-57.1c-13,2.9-15.8,13.1-15.2,23.1-6.5-2.8-6.4-13.7,1.3-21.4C62.1,532.4,68.1,530.9,72.8,532.6Z" transform="translate(-25 -35.3)" style="fill:#d2897a;fill-rule:evenodd"/><path d="M84.5,495.1c.6,1.4,1.2,3,1.7,4.6a110.1,110.1,0,0,0,6.9-30.9l-1.1.9a54.2,54.2,0,0,0-9.8,10c-1.8,2.2-2.7,3.9-3.8,4.8a24.8,24.8,0,0,1,2.5,3A42.2,42.2,0,0,1,84.5,495.1Z" transform="translate(-25 -35.3)" style="fill:#d2897a;fill-rule:evenodd"/><path d="M481.4,413.5c.3-2,.4-2.9.4-2.9q26.1,12.6,56.8,7.3C519.9,423.8,500.9,422.3,481.4,413.5Z" transform="translate(-25 -35.3)" style="fill:#000002;fill-rule:evenodd"/><path d="M481.2,419.9c.3-1.9.4-2.9.4-2.9a93.4,93.4,0,0,0,56.8,14.6C519.7,435.5,500.7,431.6,481.2,419.9Z" transform="translate(-25 -35.3)" style="fill:#000002;fill-rule:evenodd"/><path d="M472.4,474.9c9.1,8.1,20.5,14.5,34.1,19.1-16.9-4.6-28.4-10.2-34.2-16.9C472.4,475.6,472.4,474.9,472.4,474.9Z" transform="translate(-25 -35.3)" style="fill:#000002;fill-rule:evenodd"/><path d="M477.2,463.8c9.1,8.1,20.4,14.5,34.1,19.2-17-4.7-28.4-10.3-34.2-17C477.2,464.6,477.2,463.8,477.2,463.8Z" transform="translate(-25 -35.3)" style="fill:#000002;fill-rule:evenodd"/><path d="M109.2,338.4c4,11.3,10.9,22.2,20.6,32.7-12.6-12-19.9-22.3-21.8-30.8Z" transform="translate(-25 -35.3)" style="fill:#000002;fill-rule:evenodd"/><path d="M106.4,358.4l1.7-4.4c2.6,10.9,6.7,17.7,12.5,20.2C114.7,372.8,110,367.5,106.4,358.4Z" transform="translate(-25 -35.3)" style="fill:#000002;fill-rule:evenodd"/></svg>